<?xml version="1.0" encoding="UTF-8"?>
<svg id="Layer_2" data-name="Layer 2" xmlns="http://www.w3.org/2000/svg" viewBox="0 0 110 28.07">
  <defs>
    <style>
      .cls-1 {
        fill: #dcecff;
      }

      .cls-1, .cls-2 {
        stroke-width: 0px;
      }

      .cls-2 {
        fill: #4a90e2;
      }
    </style>
  </defs>
  <g id="Layer_1-2" data-name="Layer 1">
    <g>
      <g>
        <path class="cls-2" d="M40.74,7.43v3.34c-5.77-1.48-3.29,9.25-3.79,12.26,0,.58-.47,1.06-1.06,1.06-.84,0-2.4.21-2.38-1.06,0,0,0-14.41,0-14.41,0-.58.47-1.06,1.06-1.06,2.26-.29,1.95,1.13,1.99,2.79.46-2.42,2.2-3.62,4.18-2.92Z"/>
        <path class="cls-2" d="M52.1,12.61v2.9c.14,1.86-4.74.79-5.68,1.06-.58,0-1.06.47-1.06,1.06v1.73c-.06,3.21,4.1,2.38,3.43-.62h3.3c.91,7.32-10.74,7.65-10.17.29,0,0,0-6.41,0-6.41-.61-7.16,10.78-7.16,10.17,0ZM48.74,13.84c.07-1.41.12-3.79-1.68-3.56-1.8-.23-1.76,2.16-1.68,3.56h3.37Z"/>
        <path class="cls-2" d="M64.41,12.06v10.96c0,.58-.47,1.06-1.06,1.06-.84,0-2.4.21-2.38-1.06,0,0,0-10.57,0-10.57.19-3.13-3.37-2.88-3.17.49,0,0,0,10.09,0,10.09.14,1.51-3.57,1.5-3.43,0,0,0,0-14.41,0-14.41-.03-1.46,2.1-.98,2.98-1.06l.07,1.91c1.83-3.88,7.45-2.65,7,2.59Z"/>
        <path class="cls-2" d="M66.64,19.02c.1-4.11-1.27-12.23,5.05-11.79,6.32-.43,4.96,7.68,5.05,11.79.57,7.15-10.68,7.15-10.11,0ZM73.31,19.35v-7.06c.36-2.64-3.6-2.64-3.24,0,0,0,0,7.06,0,7.06-.33,2.65,3.57,2.65,3.24,0Z"/>
        <path class="cls-2" d="M84.51,10.47c-.58,0-1.06.47-1.06,1.06v8.4c-.12,1.61,1.33,1.59,2.49,1.23v2.92c-2.88,1.02-6.19-.23-5.93-3.69,0,0,0-9.91,0-9.91h-1.88c-.35-4.5,1.37-1.66,2.11-3.9.21-.87-.29-3.56,1.24-3.49,2.57-.41,1.89,1.78,1.96,3.41-.03,1.66,2.52.45,2.49,2.11.13,1.02-.21,2.05-1.44,1.86Z"/>
        <path class="cls-2" d="M97.67,12.61v2.9c.14,1.86-4.74.79-5.68,1.06-.58,0-1.06.47-1.06,1.06v1.73c-.06,3.21,4.1,2.38,3.43-.62h3.3c.91,7.32-10.74,7.65-10.17.29,0,0,0-6.41,0-6.41-.61-7.16,10.78-7.16,10.17,0ZM94.3,13.84c.07-1.41.12-3.79-1.68-3.56-1.8-.23-1.76,2.16-1.68,3.56h3.37Z"/>
        <path class="cls-2" d="M109.97,12.06v10.96c0,.58-.47,1.06-1.06,1.06-.84,0-2.4.21-2.38-1.06,0,0,0-10.57,0-10.57.19-3.13-3.37-2.88-3.17.49,0,0,0,10.09,0,10.09.14,1.51-3.57,1.5-3.43,0,0,0,0-14.41,0-14.41-.03-1.46,2.1-.98,2.98-1.06l.07,1.91c1.83-3.88,7.45-2.65,7,2.59Z"/>
      </g>
      <g>
        <rect class="cls-1" x="0" y="0" width="28.07" height="28.07" rx="14.03" ry="14.03" transform="translate(0 28.07) rotate(-90)"/>
        <rect class="cls-2" x="2.64" y="2.64" width="22.78" height="22.78" rx="11.39" ry="11.39" transform="translate(28.07 0) rotate(90)"/>
        <path class="cls-1" d="M15.68,22.63h-1.99c-.53,0-1.02-.21-1.4-.58-.37-.37-.58-.87-.57-1.4l.04-9.09c0-1.21.99-2.19,2.2-2.19s2.2.99,2.2,2.2v6.64c0,.28-.23.51-.51.51s-.51-.23-.51-.51v-6.64c0-.65-.53-1.18-1.18-1.18s-1.18.53-1.18,1.18l-.04,9.09c0,.25.1.49.28.67.18.18.42.28.67.28h1.99c.52,0,.95-.43.95-.95v-11.62c0-1.43-1.16-2.6-2.6-2.6s-2.6,1.16-2.6,2.6v8.94c0,.28-.23.51-.51.51s-.51-.23-.51-.51v-8.94c0-1.99,1.62-3.62,3.62-3.62s3.62,1.62,3.62,3.62v11.62c0,1.09-.88,1.97-1.97,1.97Z"/>
      </g>
    </g>
  </g>
</svg>